<svg width="32" height="32" viewBox="0 0 32 32" fill="none" xmlns="http://www.w3.org/2000/svg">
  <path d="M32.2085 1.18684C32.2085 0.879585 31.9588 0.629883 31.6515 0.629883C31.3443 0.629883 31.0946 0.879585 31.0946 1.18684V10.7516C30.2824 8.69646 29.058 6.85015 27.5227 5.31574C24.6294 2.42142 20.6259 0.628955 16.2093 0.629883C11.9932 0.629883 8.15397 2.26362 5.29684 4.92959L1.15966 0.793258C1.05662 0.689293 0.912741 0.629883 0.766078 0.629883C0.619416 0.629883 0.475539 0.689293 0.372504 0.793258C0.268541 0.896295 0.209132 1.04017 0.209132 1.18684V32.0728C0.203563 32.3727 0.467185 32.6354 0.767008 32.6298H16.2018C16.2028 32.6298 16.2028 32.6298 16.2037 32.6298C16.2056 32.6298 16.2074 32.6298 16.2093 32.6298C16.2111 32.6298 16.2121 32.6298 16.2139 32.6298C20.4281 32.6289 24.2655 30.9951 27.1217 28.3301L31.2524 32.4609C31.5801 32.8229 32.2308 32.5537 32.2085 32.0663V1.18684ZM22.6374 22.2713C22.8778 21.7265 23.0124 21.124 23.0124 20.4919C23.0124 19.274 22.5167 18.1656 21.7184 17.3683C21.6562 17.3061 21.5922 17.2467 21.5263 17.1882H31.0835C30.947 20.8799 29.4692 24.2244 27.1208 26.7548L22.6374 22.2713ZM18.6218 23.7946H16.7653V17.9744L21.2487 22.4579C21.1512 22.5888 21.0454 22.7123 20.9303 22.8274C20.3372 23.4196 19.525 23.7863 18.6218 23.7946ZM15.6514 31.5047C11.9598 31.3692 8.61531 29.8905 6.08492 27.542L9.40617 24.2207V24.3516C9.40617 24.4982 9.46558 24.6421 9.56954 24.7452C9.67351 24.8491 9.81646 24.9085 9.96312 24.9085H15.6514V31.5047V31.5047ZM9.40617 10.6152V16.0733H1.33416C1.46969 12.3817 2.94838 9.03714 5.29684 6.50577L9.40617 10.6152ZM18.5939 9.46506C18.5949 9.46506 18.5949 9.46506 18.5958 9.46506C19.5092 9.46599 20.3316 9.83451 20.9303 10.4323C21.529 11.032 21.8976 11.8544 21.8985 12.7687C21.8985 13.6831 21.53 14.5055 20.9303 15.1052C20.3307 15.7039 19.5083 16.0724 18.5939 16.0733C18.5911 16.0733 18.5884 16.0733 18.5856 16.0733H16.7653V9.46506H18.5939V9.46506ZM15.6514 15.2853L10.5201 10.1538V9.46506H15.6514V15.2853V15.2853ZM14.8652 16.0733H10.521V11.7291L14.8652 16.0733ZM14.8642 17.1873L10.5201 21.5315V17.1873H14.8642ZM1.32302 10.7544V2.53189L4.50876 5.71768C3.15445 7.16948 2.06562 8.87469 1.32302 10.7544ZM1.32302 22.5062C2.06562 24.3859 3.15445 26.0902 4.50876 27.542L1.32302 30.7278V22.5062ZM1.33416 17.1873H9.40617V22.6454L5.29684 26.7548C2.94838 24.2235 1.47062 20.879 1.33416 17.1873ZM10.5201 23.7946V23.1068L15.6514 17.9754V23.7946H10.5201ZM17.5543 17.1873H18.6097C19.5175 17.1919 20.3344 17.5595 20.9303 18.1545C21.529 18.7542 21.8976 19.5766 21.8985 20.4909C21.8985 20.8084 21.853 21.1138 21.7704 21.4034L17.5543 17.1873ZM31.0835 16.0733H21.5253C21.5912 16.0149 21.6562 15.9555 21.7184 15.8933C22.5167 15.0959 23.0124 13.9875 23.0124 12.7697C23.0124 11.5518 22.5167 10.4435 21.7184 9.64608C20.921 8.84777 19.8127 8.35208 18.5949 8.35208C18.5939 8.35208 18.593 8.35208 18.5921 8.35208H16.7662V1.75586C20.6565 1.89882 24.1625 3.53162 26.7356 6.10476C29.3077 8.6779 30.9405 12.183 31.0835 16.0733ZM15.6514 1.75586V8.35208H9.96312C9.81646 8.35208 9.67258 8.41149 9.56954 8.51546C9.46558 8.61942 9.40617 8.76237 9.40617 8.90904V9.04085L6.08492 5.71954C8.61531 3.36918 11.9598 1.89139 15.6514 1.75586ZM2.11111 31.5159L5.29684 28.3301C6.74861 29.6844 8.45287 30.7733 10.3326 31.5159H2.11111ZM16.7653 31.5047V24.9085H18.5791C18.5837 24.9085 18.5884 24.9095 18.5939 24.9095C18.6032 24.9095 18.6134 24.9085 18.6227 24.9085H18.6598C18.6719 24.9085 18.6849 24.9076 18.697 24.9067C19.874 24.8798 20.9424 24.3915 21.7175 23.6155C21.8326 23.5004 21.9403 23.3788 22.0424 23.2516L26.3327 27.542C23.8023 29.8914 20.4578 31.3692 16.7653 31.5047ZM31.0946 30.7278L27.9089 27.542C29.2632 26.0902 30.352 24.3869 31.0946 22.5071V30.7278Z" fill="currentColor"/>
</svg>
