<svg width="209" height="32" viewBox="0 0 209 32" fill="none" xmlns="http://www.w3.org/2000/svg">
<path d="M32 0.556956C32 0.249702 31.7503 3.60362e-07 31.4431 3.60362e-07C31.1358 3.60362e-07 30.8861 0.249702 30.8861 0.556956V10.1217C30.0739 8.06658 28.8495 6.22027 27.3142 4.68586C24.4208 1.79154 20.4172 -0.0009279 16.0005 3.60362e-07C11.7844 3.60362e-07 7.94507 1.63374 5.08788 4.2997L0.950627 0.163375C0.84759 0.0594099 0.703708 3.60362e-07 0.557043 3.60362e-07C0.410378 3.60362e-07 0.266498 0.0594099 0.163461 0.163375C0.0594963 0.266412 8.66836e-05 0.410291 8.66836e-05 0.556956V31.443C-0.00548288 31.7428 0.258144 32.0055 0.557972 31.9999H15.9931C15.994 31.9999 15.994 31.9999 15.9949 31.9999C15.9968 31.9999 15.9987 31.9999 16.0005 31.9999C16.0024 31.9999 16.0033 31.9999 16.0052 31.9999C20.2195 31.999 24.0569 30.3653 26.9131 27.7002L31.0439 31.831C31.3716 32.193 32.0223 31.9238 32 31.4365V0.556956ZM22.4287 21.6415C22.6691 21.0966 22.8037 20.4941 22.8037 19.862C22.8037 18.6441 22.308 17.5358 21.5097 16.7384C21.4475 16.6762 21.3835 16.6168 21.3176 16.5583H30.875C30.7385 20.25 29.2607 23.5945 26.9122 26.125L22.4287 21.6415ZM18.4131 23.1647H16.5565V17.3445L21.04 21.828C20.9426 21.9589 20.8367 22.0824 20.7216 22.1975C20.1285 22.7897 19.3163 23.1564 18.4131 23.1647ZM15.4426 30.8749C11.7509 30.7393 8.40641 29.2606 5.87598 26.9121L9.19729 23.5908V23.7217C9.19729 23.8684 9.2567 24.0122 9.36066 24.1153C9.46463 24.2192 9.60758 24.2787 9.75425 24.2787H15.4426V30.8749V30.8749ZM9.19729 9.9853V15.4435H1.12514C1.26066 11.7518 2.73938 8.40725 5.08788 5.87589L9.19729 9.9853ZM18.3852 8.83518C18.3861 8.83518 18.3861 8.83518 18.3871 8.83518C19.3005 8.83611 20.1229 9.20463 20.7216 9.80243C21.3204 10.4021 21.6889 11.2245 21.6898 12.1389C21.6898 13.0532 21.3213 13.8756 20.7216 14.4753C20.122 15.074 19.2995 15.4425 18.3852 15.4435C18.3824 15.4435 18.3796 15.4435 18.3769 15.4435H16.5565V8.83518H18.3852V8.83518ZM15.4426 14.6554L10.3112 9.52395V8.83518H15.4426V14.6554V14.6554ZM14.6564 15.4435H10.3121V11.0992L14.6564 15.4435ZM14.6555 16.5574L10.3112 20.9016V16.5574H14.6555ZM1.114 10.1245V1.902L4.29979 5.08779C2.94546 6.53959 1.85661 8.24481 1.114 10.1245ZM1.114 21.8763C1.85661 23.756 2.94546 25.4603 4.29979 26.9121L1.114 30.0979V21.8763ZM1.12514 16.5574H9.19729V22.0156L5.08788 26.125C2.73938 23.5936 1.26159 20.2491 1.12514 16.5574ZM10.3112 23.1647V22.4769L15.4426 17.3455V23.1647H10.3112ZM17.3456 16.5574H18.401C19.3088 16.562 20.1257 16.9296 20.7216 17.5246C21.3204 18.1243 21.6889 18.9467 21.6898 19.8611C21.6898 20.1785 21.6443 20.4839 21.5617 20.7735L17.3456 16.5574ZM30.875 15.4435H21.3167C21.3826 15.385 21.4475 15.3256 21.5097 15.2634C22.308 14.466 22.8037 13.3577 22.8037 12.1398C22.8037 10.9219 22.308 9.81357 21.5097 9.01619C20.7124 8.21789 19.604 7.7222 18.3861 7.7222C18.3852 7.7222 18.3843 7.7222 18.3834 7.7222H16.5575V1.12598C20.4478 1.26893 23.9538 2.90174 26.527 5.47488C29.0992 8.04801 30.732 11.5531 30.875 15.4435ZM15.4426 1.12598V7.7222H9.75425C9.60758 7.7222 9.4637 7.78161 9.36066 7.88557C9.2567 7.98954 9.19729 8.13249 9.19729 8.27915V8.41097L5.87598 5.08965C8.40641 2.7393 11.7509 1.26151 15.4426 1.12598ZM1.90209 30.886L5.08788 27.7002C6.53968 29.0545 8.24397 30.1434 10.1237 30.886H1.90209ZM16.5565 30.8749V24.2787H18.3704C18.375 24.2787 18.3796 24.2796 18.3852 24.2796C18.3945 24.2796 18.4047 24.2787 18.414 24.2787H18.4511C18.4632 24.2787 18.4762 24.2777 18.4882 24.2768C19.6653 24.2499 20.7337 23.7616 21.5088 22.9856C21.6239 22.8705 21.7316 22.7489 21.8337 22.6217L26.1241 26.9121C23.5937 29.2616 20.2492 30.7393 16.5565 30.8749ZM30.8861 30.0979L27.7003 26.9121C29.0546 25.4603 30.1435 23.757 30.8861 21.8772V30.0979Z" fill="#4A543C"/>
<path d="M47.028 15.788C47.4745 15.5552 47.8203 15.2355 48.0688 14.8306C48.3172 14.4258 48.4406 13.9636 48.4406 13.4475C48.4406 12.5961 48.0931 11.9219 47.3998 11.425C46.7048 10.9281 45.7092 10.6796 44.4112 10.6796H39.2107V21.3239H44.7153C46.1036 21.3239 47.16 21.072 47.8863 20.5715C48.6109 20.0694 48.974 19.3535 48.974 18.4204C48.974 17.7619 48.802 17.2059 48.4563 16.7558C48.114 16.3023 47.6361 15.9809 47.028 15.788ZM41.6606 12.5336H44.1089C44.717 12.5336 45.1792 12.6378 45.492 12.8446C45.8065 13.0531 45.9629 13.3641 45.9629 13.7794C45.9629 14.1947 45.8065 14.5092 45.492 14.7229C45.1775 14.9349 44.717 15.0426 44.1089 15.0426H41.6606V12.5336ZM46.0028 19.1485C45.6727 19.3604 45.1844 19.4682 44.5363 19.4682H41.6624V16.8375H44.5363C45.843 16.8375 46.498 17.2788 46.498 18.1598C46.4963 18.6063 46.3312 18.9347 46.0028 19.1485Z" fill="#4A543C"/>
<path d="M61.2622 11.2113C60.3796 10.7352 59.3874 10.4972 58.2823 10.4972C57.1772 10.4972 56.1816 10.7352 55.2937 11.2113C54.4058 11.6874 53.7125 12.3442 53.2104 13.18C52.7082 14.0157 52.458 14.9575 52.458 16C52.458 17.0443 52.7082 17.9843 53.2104 18.8201C53.7125 19.6559 54.4058 20.3127 55.2937 20.7888C56.1799 21.2648 57.1772 21.5029 58.2823 21.5029C59.3874 21.5029 60.3813 21.2648 61.2622 20.7888C62.1449 20.3127 62.8382 19.6559 63.3456 18.8201C63.8529 17.9843 64.1066 17.0443 64.1066 16C64.1066 14.9558 63.8529 14.0157 63.3456 13.18C62.8382 12.3442 62.1432 11.6874 61.2622 11.2113ZM61.1788 17.7637C60.8904 18.2814 60.4925 18.6846 59.9851 18.973C59.4778 19.2614 58.9113 19.4074 58.2823 19.4074C57.6533 19.4074 57.0869 19.2632 56.5795 18.973C56.0721 18.6846 55.6742 18.2814 55.3858 17.7637C55.0974 17.2459 54.9531 16.6586 54.9531 16C54.9531 15.3415 55.0974 14.7525 55.3858 14.2364C55.6742 13.7186 56.0721 13.3172 56.5795 13.0271C57.0869 12.7386 57.6533 12.5944 58.2823 12.5944C58.9113 12.5944 59.4778 12.7386 59.9851 13.0271C60.4925 13.3155 60.8904 13.7186 61.1788 14.2364C61.4673 14.7542 61.6115 15.3415 61.6115 16C61.6115 16.6603 61.4673 17.2476 61.1788 17.7637Z" fill="#4A543C"/>
<path d="M75.3572 16.5474C75.3572 17.5308 75.1539 18.2536 74.749 18.7141C74.3442 19.1763 73.7552 19.4056 72.9854 19.4056C71.4042 19.4056 70.6136 18.4535 70.6136 16.5474V10.6779H68.1498V16.6395C68.1498 18.1998 68.5737 19.4022 69.4199 20.2432C70.2661 21.0841 71.4494 21.5046 72.9698 21.5046C74.4901 21.5046 75.6734 21.0841 76.5196 20.2432C77.3658 19.4022 77.7898 18.1998 77.7898 16.6395V10.6779H75.3572V16.5474V16.5474Z" fill="#4A543C"/>
<path d="M93.7561 18.2206L91.3235 10.6779H89.0421L86.5331 18.1598L84.13 10.6779H81.5758L85.0735 21.3222H87.7042L90.1211 14.1148L92.4634 21.3222H95.1097L98.5917 10.6779H96.2339L93.7561 18.2206Z" fill="#4A543C"/>
<path d="M109.304 11.1505C108.609 10.836 107.791 10.6796 106.849 10.6796H102.241V21.3239H104.705V18.3892H106.849C107.791 18.3892 108.611 18.2345 109.304 17.9252C109.999 17.6159 110.532 17.1694 110.908 16.5873C111.283 16.0052 111.471 15.3224 111.471 14.5422C111.471 13.7516 111.283 13.067 110.908 12.4901C110.532 11.9098 109.997 11.465 109.304 11.1505ZM108.399 15.901C108.013 16.2207 107.45 16.3805 106.712 16.3805H104.705V12.6847H106.712C107.452 12.6847 108.015 12.8446 108.399 13.1643C108.785 13.484 108.977 13.9427 108.977 14.5404C108.977 15.1295 108.785 15.583 108.399 15.901Z" fill="#4A543C"/>
<path d="M117.964 10.6779H115.5V21.3222H123.3V19.3153H117.964V10.6779Z" fill="#4A543C"/>
<path d="M130.401 10.6779L125.658 21.3222H128.183L129.124 19.0408H134.066L135.009 21.3222H137.595L132.836 10.6779H130.401V10.6779ZM129.915 17.1711L131.602 13.0966L133.289 17.1711H129.915Z" fill="#4A543C"/>
<path d="M144.679 10.6779L139.936 21.3222H142.46L143.404 19.0408H148.345L149.289 21.3222H151.874L147.115 10.6779H144.679V10.6779ZM144.193 17.1711L145.88 13.0966L147.567 17.1711H144.193Z" fill="#4A543C"/>
<path d="M153.53 12.6848H156.936V21.3222H159.399V12.6848H162.805V10.6779H153.53V12.6848Z" fill="#4A543C"/>
<path d="M172.461 15.6056C171.943 15.4127 171.279 15.2199 170.47 15.027C169.689 14.855 169.109 14.6795 168.729 14.5022C168.348 14.325 168.159 14.0539 168.159 13.6891C168.159 13.3242 168.324 13.0305 168.652 12.8064C168.98 12.584 169.491 12.4728 170.181 12.4728C171.165 12.4728 172.148 12.7508 173.132 13.3085L173.893 11.4389C173.406 11.1348 172.838 10.902 172.19 10.7387C171.542 10.5771 170.878 10.4954 170.199 10.4954C169.225 10.4954 168.402 10.6431 167.728 10.9368C167.054 11.2304 166.55 11.6283 166.214 12.1305C165.879 12.6326 165.712 13.1921 165.712 13.8107C165.712 14.5196 165.896 15.0878 166.266 15.5135C166.637 15.9392 167.08 16.2485 167.597 16.4413C168.115 16.6342 168.779 16.8271 169.589 17.02C170.115 17.1416 170.534 17.2528 170.843 17.3553C171.152 17.4561 171.406 17.5916 171.604 17.7584C171.802 17.9252 171.901 18.1355 171.901 18.3892C171.901 18.7332 171.735 19.0095 171.399 19.218C171.064 19.4265 170.548 19.529 169.848 19.529C169.219 19.529 168.591 19.4282 167.962 19.2249C167.333 19.0216 166.791 18.754 166.334 18.4187L165.498 20.2744C165.975 20.6393 166.605 20.9364 167.391 21.164C168.176 21.3917 168.989 21.5063 169.832 21.5063C170.805 21.5063 171.63 21.3587 172.31 21.065C172.989 20.7714 173.498 20.3735 173.839 19.8713C174.178 19.3691 174.348 18.8149 174.348 18.2067C174.348 17.4978 174.164 16.9348 173.794 16.5195C173.422 16.1025 172.979 15.7985 172.461 15.6056Z" fill="#4A543C"/>
<path d="M179.348 18.4951C178.933 18.4951 178.582 18.6289 178.299 18.8983C178.016 19.1676 177.873 19.5186 177.873 19.9547C177.873 20.3804 178.016 20.7349 178.299 21.0198C178.582 21.3048 178.933 21.4455 179.348 21.4455C179.764 21.4455 180.115 21.3031 180.398 21.0198C180.681 20.7366 180.824 20.3804 180.824 19.9547C180.824 19.5186 180.681 19.1676 180.398 18.8983C180.115 18.6289 179.764 18.4951 179.348 18.4951Z" fill="#4A543C"/>
<path d="M192.213 17.1416L186.921 10.6779H184.884V21.3222H187.317V14.8602L192.623 21.3222H194.646V10.6779H192.213V17.1416Z" fill="#4A543C"/>
<path d="M206.567 10.6779V16.5474C206.567 17.5308 206.364 18.2536 205.959 18.7141C205.554 19.1763 204.965 19.4056 204.196 19.4056C202.614 19.4056 201.824 18.4535 201.824 16.5474V10.6779H199.36V16.6395C199.36 18.1998 199.782 19.4022 200.63 20.2432C201.476 21.0841 202.66 21.5046 204.18 21.5046C205.7 21.5046 206.884 21.0841 207.73 20.2432C208.576 19.4022 209 18.1998 209 16.6395V10.6779H206.567V10.6779Z" fill="#4A543C"/>
</svg>
